<?xml version="1.0" encoding="utf-8"?>
<!-- Generator: Adobe Illustrator 24.2.0, SVG Export Plug-In . SVG Version: 6.00 Build 0)  -->
<svg version="1.1" id="Layer_1" xmlns="http://www.w3.org/2000/svg" xmlns:xlink="http://www.w3.org/1999/xlink" x="0px" y="0px"
	 viewBox="0 0 56.7 56.7" style="enable-background:new 0 0 56.7 56.7;" xml:space="preserve">
<g>
	<g>
		<path d="M36.4,54.9c-5.4,0-10.6,0-16,0c0-0.4,0-0.7,0-1c0-4.5,0-9.1,0-13.6c0-0.6-0.2-0.9-0.7-1.2c-4.8-3.3-7.3-7.8-7.3-13.7
			c0-7.8,5.9-14.7,13.9-15.6c6-0.7,11,1.3,14.7,6.1c4.9,6.3,4.4,14.9-1,20.7c-0.9,0.9-1.9,1.7-3,2.4c-0.5,0.4-0.7,0.7-0.7,1.3
			c0,4.5,0,9,0,13.5C36.4,54.2,36.4,54.6,36.4,54.9z M28.4,38c1.6,0,3.2,0,4.8,0c0.3,0,0.7,0,0.9-0.2c1.4-1,2.9-1.9,4.1-3.1
			c3-3.1,4.1-7,3.3-11.2c-1.3-7.5-8.2-12.2-15.8-10.8c-6.2,1.1-11,7.2-10.7,13.4c0.2,3.7,1.6,6.9,4.3,9.4c1.6,1.5,3.4,2.9,5.9,2.6
			C26.3,37.8,27.4,38,28.4,38z M33.7,49.5c0-0.6,0-1.2,0-1.7c0.1-0.7-0.2-1-0.9-1.2c-3-0.9-5.9-1.9-8.9-2.9
			c-0.3-0.1-0.5-0.1-0.8-0.2c0,0.1-0.1,0.2-0.1,0.3C23,45.9,23,45.9,25,46.5C27.9,47.5,30.7,48.5,33.7,49.5z M23.8,40.7
			c0,0,0,0.1,0,0.1c3.3,1.1,6.6,2.2,9.9,3.3c0-1.2,0-2.3,0-3.4C30.3,40.7,27,40.7,23.8,40.7z M23.1,52.1c3.3,0,6.5,0,9.7,0
			c0,0,0-0.1,0-0.1c-3.2-1.1-6.4-2.1-9.7-3.2C23.1,49.9,23.1,51,23.1,52.1z"/>
		<path d="M27.1,7c0-1.8,0-3.5,0-5.2c0.9,0,1.7,0,2.6,0c0,1.7,0,3.4,0,5.2C28.8,7,28,7,27.1,7z"/>
		<path d="M4.5,24.4c1.8,0,3.5,0,5.2,0c0,0.9,0,1.7,0,2.6c-1.7,0-3.4,0-5.2,0C4.5,26.1,4.5,25.3,4.5,24.4z"/>
		<path d="M47.1,26.9c0-0.9,0-1.7,0-2.6c1.8,0,3.5,0,5.2,0c0,0.9,0,1.7,0,2.6C50.6,26.9,48.9,26.9,47.1,26.9z"/>
		<path d="M12.3,7.9c1.3,1.2,2.5,2.4,3.7,3.6c-0.6,0.6-1.1,1.2-1.6,1.7c-1.2-1.2-2.5-2.4-3.7-3.6C11.2,9.1,11.8,8.4,12.3,7.9z"/>
		<path d="M42.5,13.3c-0.6-0.6-1.2-1.1-1.7-1.7c1.2-1.2,2.4-2.4,3.7-3.7c0.5,0.6,1.1,1.2,1.6,1.8C44.9,10.8,43.7,12,42.5,13.3z"/>
		<path d="M12.4,43.4c-0.6-0.6-1.2-1.1-1.7-1.7c1.2-1.2,2.4-2.4,3.7-3.7c0.5,0.5,1.1,1.2,1.6,1.8C14.8,41,13.6,42.2,12.4,43.4z"/>
		<path d="M40.9,39.7c0.5-0.5,1.1-1.1,1.6-1.6c1.2,1.2,2.4,2.4,3.6,3.6c-0.5,0.5-1.1,1.1-1.6,1.7C43.3,42.2,42.1,40.9,40.9,39.7z"/>
	</g>
</g>
</svg>
